<svg width="14" height="10" viewBox="0 0 14 10" fill="none" xmlns="http://www.w3.org/2000/svg">
<path d="M5.44871 9.27956C5.31744 9.27983 5.18741 9.25417 5.06609 9.20406C4.94476 9.15395 4.83453 9.08038 4.74171 8.98756L0.499707 4.74456C0.404134 4.65238 0.327875 4.54209 0.275382 4.42013C0.222888 4.29816 0.195211 4.16696 0.193964 4.03418C0.192717 3.9014 0.217927 3.76971 0.268121 3.64678C0.318314 3.52385 0.392488 3.41214 0.486314 3.31819C0.580139 3.22423 0.691737 3.1499 0.814596 3.09953C0.937456 3.04916 1.06912 3.02377 1.20189 3.02482C1.33467 3.02588 1.46591 3.05337 1.58795 3.1057C1.70999 3.15802 1.82039 3.23412 1.91271 3.32956L5.44771 6.86456L11.8127 0.501562C12.0002 0.313921 12.2546 0.208453 12.5199 0.208359C12.7851 0.208265 13.0396 0.313553 13.2272 0.501061C13.4148 0.68857 13.5203 0.942938 13.5204 1.20821C13.5205 1.47348 13.4152 1.72792 13.2277 1.91556L6.15571 8.98756C6.06289 9.08038 5.95265 9.15395 5.83132 9.20406C5.71 9.25417 5.57997 9.27983 5.44871 9.27956Z" fill="#2FAB73"/>
</svg>
